<svg xmlns="http://www.w3.org/2000/svg" width="30" height="19.336" viewBox="0 0 30 19.336">
  <g id="coupon" transform="translate(0 -91)">
    <g id="Group_2489" data-name="Group 2489" transform="translate(22.969 103.305)">
      <g id="Group_2488" data-name="Group 2488">
        <path id="Path_4612" data-name="Path 4612" d="M392.879,301a.879.879,0,1,0,.879.879A.88.88,0,0,0,392.879,301Z" transform="translate(-392 -301)"/>
      </g>
    </g>
    <g id="Group_2491" data-name="Group 2491" transform="translate(0 91)">
      <g id="Group_2490" data-name="Group 2490">
        <path id="Path_4613" data-name="Path 4613" d="M29.121,91H8.862v2.637a.879.879,0,1,1-1.758,0V91H.879A.878.878,0,0,0,0,91.879v5.273a.878.878,0,0,0,.879.879,2.637,2.637,0,0,1,0,5.273.878.878,0,0,0-.879.879v5.273a.878.878,0,0,0,.879.879H7.031V107.7a.879.879,0,0,1,1.758,0v2.637H29.121a.878.878,0,0,0,.879-.879V91.879A.878.878,0,0,0,29.121,91ZM8.789,104.184a.879.879,0,0,1-1.758,0v-1.758a.879.879,0,0,1,1.758,0Zm0-5.273a.879.879,0,0,1-1.758,0V97.152a.879.879,0,0,1,1.758,0Zm5.391-1.758a2.637,2.637,0,1,1,2.637,2.637A2.64,2.64,0,0,1,14.18,97.152Zm2.149,9.52a.878.878,0,0,1-.244-1.219l7.031-10.547a.879.879,0,1,1,1.463.975l-7.031,10.547A.879.879,0,0,1,16.329,106.673Zm7.519.148a2.637,2.637,0,1,1,2.637-2.637A2.64,2.64,0,0,1,23.848,106.82Z" transform="translate(0 -91)" fill="#434e28"/>
      </g>
    </g>
    <g id="Group_2493" data-name="Group 2493" transform="translate(15.938 96.273)">
      <g id="Group_2492" data-name="Group 2492">
        <path id="Path_4614" data-name="Path 4614" d="M272.879,181a.879.879,0,1,0,.879.879A.88.88,0,0,0,272.879,181Z" transform="translate(-272 -181)"/>
      </g>
    </g>
  </g>
</svg>
