<svg id="down-arrow_1_" data-name="down-arrow (1)" xmlns="http://www.w3.org/2000/svg" width="20.212" height="20.212" viewBox="0 0 20.212 20.212">
  <g id="Group_796" data-name="Group 796" transform="translate(0 12.356)">
    <g id="Group_795" data-name="Group 795">
      <path id="Path_1788" data-name="Path 1788" d="M18.633,313v5.487a.79.79,0,0,1-.79.79H2.369a.79.79,0,0,1-.79-.79V313H0v5.487a2.371,2.371,0,0,0,2.369,2.369H17.844a2.371,2.371,0,0,0,2.369-2.369V313Z" transform="translate(0 -313)" fill="#fff"/>
    </g>
  </g>
  <g id="Group_798" data-name="Group 798" transform="translate(5.2)">
    <g id="Group_797" data-name="Group 797">
      <path id="Path_1789" data-name="Path 1789" d="M140.412,9.305l-3,3V0h-1.579V12.306l-3-3-1.117,1.117,4.906,4.906,4.906-4.906Z" transform="translate(-131.716)" fill="#fff"/>
    </g>
  </g>
</svg>
