<?xml version="1.0" encoding="utf-8"?>
<!-- Generator: Adobe Illustrator 24.3.0, SVG Export Plug-In . SVG Version: 6.00 Build 0)  -->
<svg version="1.1" id="Layer_1" xmlns="http://www.w3.org/2000/svg" xmlns:xlink="http://www.w3.org/1999/xlink" x="0px" y="0px"
	 viewBox="0 0 19 19" style="enable-background:new 0 0 19 19;" xml:space="preserve">
<g>
	<path d="M9.5,4.6c-2.7,0-4.9,2.2-4.9,4.9s2.2,4.9,4.9,4.9s4.9-2.2,4.9-4.9S12.2,4.6,9.5,4.6z M9.5,12.7c-1.7,0-3.2-1.4-3.2-3.2
		s1.4-3.2,3.2-3.2s3.2,1.4,3.2,3.2S11.2,12.7,9.5,12.7L9.5,12.7z M15.7,4.4c0,0.6-0.5,1.1-1.1,1.1c-0.6,0-1.1-0.5-1.1-1.1
		s0.5-1.1,1.1-1.1S15.7,3.8,15.7,4.4z M18.9,5.6c-0.1-1.5-0.4-2.9-1.5-4c-1.1-1.1-2.5-1.5-4-1.5C11.9,0,7.1,0,5.6,0.1
		c-1.5,0.1-2.9,0.4-4,1.5s-1.5,2.5-1.5,4C0,7.1,0,11.8,0.1,13.4c0.1,1.5,0.4,2.9,1.5,4c1.1,1.1,2.5,1.5,4,1.5c1.6,0.1,6.3,0.1,7.8,0
		c1.5-0.1,2.9-0.4,4-1.5c1.1-1.1,1.5-2.5,1.5-4C19,11.8,19,7.2,18.9,5.6L18.9,5.6z M16.9,15.1c-0.3,0.8-1,1.5-1.8,1.8
		c-1.3,0.5-4.2,0.4-5.6,0.4s-4.4,0.1-5.6-0.4c-0.8-0.3-1.5-1-1.8-1.8c-0.5-1.3-0.4-4.2-0.4-5.6S1.6,5.1,2.1,3.9
		c0.3-0.8,1-1.5,1.8-1.8c1.3-0.5,4.2-0.4,5.6-0.4s4.4-0.1,5.6,0.4c0.8,0.3,1.5,1,1.8,1.8c0.5,1.3,0.4,4.2,0.4,5.6
		S17.4,13.9,16.9,15.1z"/>
</g>
</svg>
