<svg xmlns="http://www.w3.org/2000/svg" width="177" height="97.979" viewBox="0 0 177 97.979">
  <g id="logo" transform="translate(-383.877 -181.651)">
    <g id="Group_2" data-name="Group 2" transform="translate(402.175 183.629)">
      <path id="Path_1" data-name="Path 1" d="M498.07,456.176l-6.57,27.336s15.89-30.072,21.9-30.013c8.355.081-4.38,27.417-4.38,27.417s13.06-20.036,18.251-19.711-2.758,19.468,5.84,19.468c5.364,0,12.979-8.274,12.979-8.274" transform="translate(-491.5 -409.717)" fill="none" stroke="#8a8d78" stroke-linecap="round" stroke-linejoin="round" stroke-width="4"/>
      <path id="Path_2" data-name="Path 2" d="M1035.956,235.766s-2.271-3.569-6.814.162a18.875,18.875,0,0,0-4.867,6.165c-.874,1.573-3.748,7.929-.024,7.687,1.686-.109,3.023-1.732,4.15-2.817a61.174,61.174,0,0,0,4.268-4.581,122.138,122.138,0,0,0,7.357-9.867q6.407-9.339,12.215-19.07c2.678-4.487,5.182-9.04,7.423-13.758a59.367,59.367,0,0,0,3.183-7.735c.621-1.993,3.011-6.564.315-8.014-3.588-1.93-7.55,5.706-8.979,7.948a108.067,108.067,0,0,0-8.214,16.262c-4.9,11.622-9.958,24.073-11.377,36.69-.612,5.44-.059,11.977,5.02,15.2,6.213,3.939,13.685-.626,18.185-5.1a51.765,51.765,0,0,0,12.958-21.2" transform="translate(-936.263 -183.629)" fill="none" stroke="#8a8d78" stroke-linecap="round" stroke-linejoin="round" stroke-width="4"/>
      <path id="Path_3" data-name="Path 3" d="M844.267,506.36s-.162-4.056-5.029-3.569S827.07,513.5,829.5,517.067c2.132,3.126,13.79-8.923,13.79-8.923s-6.61,12.392-1.785,14.439c5.354,2.271,22.388-15.737,22.388-15.737" transform="translate(-774.263 -450.978)" fill="none" stroke="#8a8d78" stroke-linecap="round" stroke-linejoin="round" stroke-width="4"/>
    </g>
    <text id="ABOUT_WEDDINGS" data-name="ABOUT WEDDINGS" transform="translate(384.877 275.629)" fill="#9a7b5e" font-size="14" font-family="Quasimoda-Regular, Quasimoda" letter-spacing="0.258em"><tspan x="0" y="0">ABOUT WEDDINGS</tspan></text>
  </g>
</svg>
