<svg xmlns="http://www.w3.org/2000/svg" width="20" height="15" viewBox="0 0 20 15">
  <path id="envelope_2_" data-name="envelope (2)" d="M18.125,59.882H1.875A1.877,1.877,0,0,0,0,61.757v11.25a1.877,1.877,0,0,0,1.875,1.875h16.25A1.877,1.877,0,0,0,20,73.007V61.757A1.877,1.877,0,0,0,18.125,59.882Zm0,1.25a.622.622,0,0,1,.24.048L10,68.43,1.635,61.18a.622.622,0,0,1,.24-.048Zm0,12.5H1.875a.625.625,0,0,1-.625-.625V62.5l8.34,7.228a.626.626,0,0,0,.819,0L18.75,62.5V73.007A.625.625,0,0,1,18.125,73.632Z" transform="translate(0 -59.882)" fill="#9a7b5e"/>
</svg>
