<svg xmlns="http://www.w3.org/2000/svg" xmlns:xlink="http://www.w3.org/1999/xlink" width="54.308" height="54.308" viewBox="0 0 54.308 54.308">
  <defs>
    <filter id="Path_1785" x="0" y="0" width="54.308" height="54.308" filterUnits="userSpaceOnUse">
      <feOffset dy="3" input="SourceAlpha"/>
      <feGaussianBlur stdDeviation="3" result="blur"/>
      <feFlood flood-opacity="0.161"/>
      <feComposite operator="in" in2="blur"/>
      <feComposite in="SourceGraphic"/>
    </filter>
  </defs>
  <g id="Group_789" data-name="Group 789" transform="translate(-1316 -317)">
    <g transform="matrix(1, 0, 0, 1, 1316, 317)" filter="url(#Path_1785)">
      <g id="Path_1785-2" data-name="Path 1785" transform="translate(9 6)" fill="#fff">
        <path d="M 18.15403747558594 35.80807876586914 C 13.43846702575684 35.80807876586914 9.005157470703125 33.97173690795898 5.67074728012085 30.63732719421387 C 2.336337566375732 27.30291748046875 0.499997466802597 22.86960792541504 0.499997466802597 18.15403747558594 C 0.499997466802597 13.43846702575684 2.336337566375732 9.005157470703125 5.67074728012085 5.67074728012085 C 9.005157470703125 2.336337566375732 13.43846702575684 0.499997466802597 18.15403747558594 0.499997466802597 C 22.86960792541504 0.499997466802597 27.30291748046875 2.336337566375732 30.63732719421387 5.67074728012085 C 33.97173690795898 9.005157470703125 35.80807876586914 13.43846702575684 35.80807876586914 18.15403747558594 C 35.80807876586914 22.86960792541504 33.97173690795898 27.30291748046875 30.63732719421387 30.63732719421387 C 27.30291748046875 33.97173690795898 22.86960792541504 35.80807876586914 18.15403747558594 35.80807876586914 Z" stroke="none"/>
        <path d="M 18.15403747558594 0.9999961853027344 C 13.5720272064209 0.9999961853027344 9.264266967773438 2.784328460693359 6.024297714233398 6.024297714233398 C 2.784328460693359 9.264266967773438 0.9999961853027344 13.5720272064209 0.9999961853027344 18.15403747558594 C 0.9999961853027344 22.73604774475098 2.784328460693359 27.04380798339844 6.024297714233398 30.28377723693848 C 9.264266967773438 33.52374649047852 13.5720272064209 35.30807876586914 18.15403747558594 35.30807876586914 C 22.73604774475098 35.30807876586914 27.04380798339844 33.52374649047852 30.28377723693848 30.28377723693848 C 33.52374649047852 27.04380798339844 35.30807876586914 22.73604774475098 35.30807876586914 18.15403747558594 C 35.30807876586914 13.5720272064209 33.52374649047852 9.264266967773438 30.28377723693848 6.024297714233398 C 27.04380798339844 2.784328460693359 22.73604774475098 0.9999961853027344 18.15403747558594 0.9999961853027344 M 18.15403747558594 -3.814697265625e-06 C 28.18023681640625 -3.814697265625e-06 36.30807876586914 8.127838134765625 36.30807876586914 18.15403747558594 C 36.30807876586914 28.18023681640625 28.18023681640625 36.30807876586914 18.15403747558594 36.30807876586914 C 8.127838134765625 36.30807876586914 -3.814697265625e-06 28.18023681640625 -3.814697265625e-06 18.15403747558594 C -3.814697265625e-06 8.127838134765625 8.127838134765625 -3.814697265625e-06 18.15403747558594 -3.814697265625e-06 Z" stroke="none" fill="#8a8d78"/>
      </g>
    </g>
    <g id="close" transform="translate(1333.714 331.714)">
      <g id="Group_788" data-name="Group 788">
        <path id="Path_1786" data-name="Path 1786" d="M18.259,1.845,16.414,0,9.13,7.284,1.845,0,0,1.845,7.284,9.13,0,16.414l1.845,1.845L9.13,10.975l7.284,7.284,1.845-1.845L10.975,9.13Z" fill="#8a8d78"/>
      </g>
    </g>
  </g>
</svg>
