<svg xmlns="http://www.w3.org/2000/svg" width="91.674" height="80.259" viewBox="0 0 91.674 80.259">
  <path id="Path_1725" data-name="Path 1725" d="M115.24,170.048a89.646,89.646,0,0,0-13.293,13.758c-3.886,5.171-5.75,9.734-5.656,13.573a8.162,8.162,0,0,0,2.29,5.984c1.448,1.491,4.02,2.726,7.657,3.711a18.9,18.9,0,0,1,10.77,6.4,18.5,18.5,0,0,1,3.892,11.48,15.466,15.466,0,0,1-4.907,11.862,17.928,17.928,0,0,1-12.521,5.1,20.464,20.464,0,0,1-16.6-7.1c-4.354-4.921-6.655-11.358-6.849-19.314q-.306-12.523,8.277-26.454,7.6-12.288,21.393-24.287c5.235-4.563,11.322.33,5.548,5.287Zm50.363-.957A84.049,84.049,0,0,0,152.666,182.4c-3.887,5.173-5.8,9.8-5.708,13.746a8.388,8.388,0,0,0,2.292,5.984q2.255,2.23,7.712,3.707c4.712,1.129,8.265,3.245,10.769,6.4a18.523,18.523,0,0,1,3.948,11.479,15.557,15.557,0,0,1-4.791,11.86,17.3,17.3,0,0,1-12.41,5.1,20.829,20.829,0,0,1-16.827-7.1c-4.354-4.919-6.655-11.355-6.849-19.311-.2-8.349,2.517-17.167,8.219-26.452q7.7-12.451,21.886-24.611C165.541,159.241,172.122,163.572,165.6,169.091Z" transform="translate(-80.011 -161.668)" fill="#8a8d78" fill-rule="evenodd" opacity="0.1"/>
</svg>
