<svg xmlns="http://www.w3.org/2000/svg" width="22" height="42.153" viewBox="0 0 22 42.153">
  <g id="right-arrow" transform="translate(-117.325 0)" opacity="0.6">
    <path id="Path_1236" data-name="Path 1236" d="M118.9.391a.916.916,0,0,0-1.3,1.3l19.506,19.508L117.6,40.7a.916.916,0,1,0,1.273,1.318L118.9,42l20.155-20.155a.916.916,0,0,0,0-1.3Z" transform="translate(0 -0.122)" fill="#9a7b5e"/>
    <path id="Path_1237" data-name="Path 1237" d="M118.365,42.143a.916.916,0,0,1-.649-1.565l19.508-19.506L117.716,1.566a.917.917,0,0,1,1.3-1.3l20.155,20.155a.916.916,0,0,1,0,1.3L119.013,41.874A.916.916,0,0,1,118.365,42.143Z" transform="translate(-0.111 0)" fill="#9a7b5e"/>
  </g>
</svg>
