<svg xmlns="http://www.w3.org/2000/svg" width="18" height="14.36" viewBox="0 0 18 14.36">
  <g id="tags" transform="translate(0 -54.819)">
    <g id="Group_764" data-name="Group 764" transform="translate(0 54.819)">
      <path id="Path_1752" data-name="Path 1752" d="M14.36,63.312a1.214,1.214,0,0,0-.351-.863L7.232,55.682a2.934,2.934,0,0,0-.967-.611,2.928,2.928,0,0,0-1.109-.251H1.213a1.166,1.166,0,0,0-.853.36,1.166,1.166,0,0,0-.36.853v3.943a2.926,2.926,0,0,0,.251,1.109,2.828,2.828,0,0,0,.611.957L7.64,68.828a1.161,1.161,0,0,0,.853.351,1.214,1.214,0,0,0,.863-.351l4.654-4.663A1.161,1.161,0,0,0,14.36,63.312ZM3.891,58.71a1.169,1.169,0,0,1-.858.356,1.213,1.213,0,0,1,0-2.427,1.213,1.213,0,0,1,.858,2.071Z" transform="translate(0 -54.819)" fill="#434e28"/>
      <path id="Path_1753" data-name="Path 1753" d="M211.972,62.453l-6.777-6.768a3.359,3.359,0,0,0-2.076-.863H201a3.359,3.359,0,0,1,2.076.863l6.777,6.768a1.214,1.214,0,0,1,.351.863,1.161,1.161,0,0,1-.351.853l-4.455,4.455a2.7,2.7,0,0,0,.5.427,1.062,1.062,0,0,0,.559.133,1.213,1.213,0,0,0,.863-.351l4.654-4.663a1.161,1.161,0,0,0,.351-.853A1.214,1.214,0,0,0,211.972,62.453Z" transform="translate(-194.323 -54.823)" fill="#434e28"/>
    </g>
  </g>
</svg>
