<svg xmlns="http://www.w3.org/2000/svg" width="22" height="42.153" viewBox="0 0 22 42.153">
  <g id="left-arrow" transform="translate(-117.325 0)">
    <path id="Path_1236" data-name="Path 1236" d="M137.746.391a.916.916,0,0,1,1.3,1.3L119.536,21.194,139.044,40.7a.916.916,0,1,1-1.273,1.318L137.748,42,117.593,21.841a.916.916,0,0,1,0-1.3Z" transform="translate(0.002 -0.122)" fill="#9a7b5e"/>
    <path id="Path_1237" data-name="Path 1237" d="M138.519,42.143a.916.916,0,0,0,.649-1.565L119.659,21.072,139.167,1.566a.917.917,0,0,0-1.3-1.3L117.715,20.423a.916.916,0,0,0,0,1.3L137.87,41.874A.916.916,0,0,0,138.519,42.143Z" transform="translate(-0.122 0)" fill="#9a7b5e"/>
  </g>
</svg>
