<?xml version="1.0" encoding="utf-8"?>
<!-- Generator: Adobe Illustrator 24.3.0, SVG Export Plug-In . SVG Version: 6.00 Build 0)  -->
<svg version="1.1" id="Layer_1" xmlns="http://www.w3.org/2000/svg" xmlns:xlink="http://www.w3.org/1999/xlink" x="0px" y="0px"
	 viewBox="0 0 19 19" style="enable-background:new 0 0 19 19;" xml:space="preserve">
<path d="M19,3.6c-0.7,0.4-1.4,0.5-2.3,0.6c0.8-0.5,1.4-1.3,1.7-2.1c-0.7,0.5-1.5,0.7-2.5,0.9c-1.4-1.5-3.9-1.7-5.5-0.1
	C9.6,3.6,9.3,4.6,9.3,5.7c0,0.4,0,0.6,0.1,0.8C6.2,6.4,3.3,5,1.3,2.5c-1.1,1.8-0.5,4,1.2,5.2c-0.6,0-1.2-0.1-1.8-0.5l0,0
	c0,1.9,1.3,3.4,3.1,3.8c-0.2,0.1-0.6,0.2-0.9,0.2c-0.2,0-0.5-0.1-0.7-0.1c0.5,1.5,2,2.6,3.7,2.7c-1.4,1.1-3.1,1.7-4.9,1.7
	c-0.4,0-0.6,0-0.9-0.1c1.8,1.2,3.8,1.8,5.9,1.8c6.1,0,11-4.9,11-10.9V6.2c0-0.1,0-0.4,0-0.5C17.8,5.1,18.5,4.4,19,3.6z"/>
</svg>
