<svg xmlns="http://www.w3.org/2000/svg" width="16.925" height="15.965" viewBox="0 0 16.925 15.965">
  <g id="male-user-shadow" transform="translate(0 -7.045)">
    <g id="Group_780" data-name="Group 780" transform="translate(0 7.045)">
      <path id="Path_1770" data-name="Path 1770" d="M.678,143.282H16.247a.705.705,0,0,0,.532-.233.574.574,0,0,0,.142-.458,8.564,8.564,0,0,0-4.508-6.478,5.579,5.579,0,0,1-7.9,0A8.563,8.563,0,0,0,0,142.591a.575.575,0,0,0,.142.458A.705.705,0,0,0,.678,143.282Z" transform="translate(0 -127.317)" fill="#434e28"/>
      <path id="Path_1771" data-name="Path 1771" d="M54.4,15.226c.091.1.186.186.284.274a4.817,4.817,0,0,0,6.448,0c.1-.088.193-.179.284-.274s.179-.193.262-.3a4.847,4.847,0,1,0-7.54,0C54.218,15.033,54.307,15.131,54.4,15.226Z" transform="translate(-49.443 -7.045)" fill="#434e28"/>
    </g>
  </g>
</svg>
